<?xml version="1.0" encoding="iso-8859-1"?>
<!-- Generator: Adobe Illustrator 20.1.0, SVG Export Plug-In . SVG Version: 6.00 Build 0)  -->
<svg xmlns="http://www.w3.org/2000/svg" xmlns:xlink="http://www.w3.org/1999/xlink" version="1.1" id="&#1057;&#1083;&#1086;&#1081;_1" x="0px" y="0px" viewBox="0 0 64 64" style="enable-background:new 0 0 64 64;" xml:space="preserve">
<linearGradient id="SVGID_1__44806" gradientUnits="userSpaceOnUse" x1="29.0003" y1="15.2499" x2="29.0003" y2="53.8481" spreadMethod="reflect">
	<stop offset="0" style="stop-color:#6DC7FF"/>
	<stop offset="1" style="stop-color:#E6ABFF"/>
</linearGradient>
<path style="fill:url(#SVGID_1__44806);" d="M29,53c-9.925,0-18-8.075-18-18s8.075-18,18-18s18,8.075,18,18S38.925,53,29,53z M29,19  c-8.822,0-16,7.178-16,16s7.178,16,16,16s16-7.178,16-16S37.823,19,29,19z"/>
<linearGradient id="SVGID_2__44806" gradientUnits="userSpaceOnUse" x1="29.0003" y1="5.2498" x2="29.0003" y2="59.6473" spreadMethod="reflect">
	<stop offset="0" style="stop-color:#1A6DFF"/>
	<stop offset="1" style="stop-color:#C822FF"/>
</linearGradient>
<path style="fill:url(#SVGID_2__44806);" d="M48.568,27.361C49.519,29.792,50,32.362,50,35c0,11.579-9.421,21-21,21S8,46.579,8,35  s9.421-21,21-21c2.636,0,5.206,0.482,7.642,1.433l0.727-1.863C34.702,12.528,31.886,12,29,12C16.318,12,6,22.317,6,35  s10.317,23,23,23s23-10.317,23-23c0-2.888-0.528-5.703-1.569-8.367L48.568,27.361z"/>
<linearGradient id="SVGID_3__44806" gradientUnits="userSpaceOnUse" x1="37" y1="5.2497" x2="37" y2="59.6591" spreadMethod="reflect">
	<stop offset="0" style="stop-color:#1A6DFF"/>
	<stop offset="1" style="stop-color:#C822FF"/>
</linearGradient>
<path style="fill:url(#SVGID_3__44806);" d="M57.914,14.604c-0.216-0.713-0.804-1.247-1.534-1.394l-4.66-0.932l-0.931-4.655  c-0.146-0.731-0.679-1.319-1.393-1.536c-0.712-0.217-1.484-0.025-2.013,0.504l-6.497,6.498c-0.717,0.718-1.025,1.74-0.827,2.734  l1.117,5.659L40.233,22.5h0.001l-2.786,2.712c-2.275-1.951-5.223-3.176-8.447-3.176c-7.168,0-13,5.814-13,12.982  s5.832,12.991,13,12.991s13-5.837,13-13.005c0-3.225-1.187-6.175-3.139-8.45l3.729-3.73l5.584,1.117  c0.199,0.04,0.398,0.059,0.597,0.059c0.795,0,1.564-0.314,2.139-0.888l6.498-6.5C57.935,16.087,58.128,15.317,57.914,14.604z   M48.828,8.015l0.956,4.784l-1.538,1.539l-1.066,1.066l-0.959-4.797L48.828,8.015z M42.02,15.432  c-0.067-0.337,0.038-0.685,0.281-0.929l2.218-2.205l0.961,4.806l-2.605,2.605L42.02,15.432z M40,35c0,6.065-4.935,11-11,11  s-11-4.935-11-11s4.935-11,11-11c2.673,0,5.126,0.96,7.034,2.552l-5.015,5.014C30.425,31.215,29.74,31,29,31c-2.206,0-4,1.794-4,4  s1.794,4,4,4s4-1.794,4-4c0-0.74-0.215-1.424-0.567-2.02l5.015-5.014C39.04,29.874,40,32.327,40,35z M31,35c0,1.103-0.897,2-2,2  s-2-0.897-2-2s0.897-2,2-2S31,33.897,31,35z M49.496,21.699c-0.244,0.244-0.592,0.348-0.929,0.281l-4.277-0.856l2.605-2.604  l4.816,0.963L49.496,21.699z M53.41,17.784l-4.815-0.964l2.537-2.537l0,0l0.066-0.066l4.798,0.981L53.41,17.784z"/>
</svg>
