<?xml version="1.0" encoding="iso-8859-1"?>
<!-- Generator: Adobe Illustrator 20.1.0, SVG Export Plug-In . SVG Version: 6.00 Build 0)  -->
<svg xmlns="http://www.w3.org/2000/svg" xmlns:xlink="http://www.w3.org/1999/xlink" version="1.1" id="&#1057;&#1083;&#1086;&#1081;_1" x="0px" y="0px" viewBox="0 0 64 64" style="enable-background:new 0 0 64 64;" xml:space="preserve">
<linearGradient id="SVGID_1__48196" gradientUnits="userSpaceOnUse" x1="32" y1="46.75" x2="32" y2="54.5362" spreadMethod="reflect">
	<stop offset="0" style="stop-color:#6DC7FF"/>
	<stop offset="1" style="stop-color:#E6ABFF"/>
</linearGradient>
<rect x="15" y="49" style="fill:url(#SVGID_1__48196);" width="34" height="4"/>
<linearGradient id="SVGID_2__48196" gradientUnits="userSpaceOnUse" x1="32" y1="5" x2="32" y2="59.3605" spreadMethod="reflect">
	<stop offset="0" style="stop-color:#1A6DFF"/>
	<stop offset="1" style="stop-color:#C822FF"/>
</linearGradient>
<path style="fill:url(#SVGID_2__48196);" d="M50,10h-4V9c0-1.654-1.346-3-3-3h-2c-1.654,0-3,1.346-3,3v1H26V9c0-1.654-1.346-3-3-3h-2  c-1.654,0-3,1.346-3,3v1h-4c-2.757,0-5,2.243-5,5v38c0,2.757,2.243,5,5,5h36c2.757,0,5-2.243,5-5V15C55,12.243,52.757,10,50,10z   M44,14c0,0.552-0.448,1-1,1h-2c-0.552,0-1-0.448-1-1V9c0-0.552,0.448-1,1-1h2c0.552,0,1,0.448,1,1V14z M24,14c0,0.552-0.448,1-1,1  h-2c-0.552,0-1-0.448-1-1V9c0-0.552,0.448-1,1-1h2c0.552,0,1,0.448,1,1V14z M14,12h4v2c0,1.654,1.345,3,3,3h2c1.654,0,3-1.346,3-3  v-2h12v2c0,1.654,1.345,3,3,3h2c1.654,0,3-1.346,3-3v-2h4c1.654,0,3,1.346,3,3v7H11v-7C11,13.346,12.345,12,14,12z M15,49.815  C15,49.928,15.647,50,16,50h32c0.352,0,1-0.072,1-0.184V51c0,0.552-0.449,1-1,1H16c-0.552,0-1-0.448-1-1V49.815z M49,47  c0,0.552-0.449,1-1,1H16c-0.552,0-1-0.448-1-1v-1V24h34v22V47z M50,56H14c-1.654,0-3-1.346-3-3V24h2v22v1v4c0,1.654,1.345,3,3,3h32  c1.654,0,3-1.346,3-3v-4v-1V24h2v29C53,54.654,51.654,56,50,56z"/>
<linearGradient id="SVGID_3__48196" gradientUnits="userSpaceOnUse" x1="39" y1="5" x2="39" y2="59.3605" spreadMethod="reflect">
	<stop offset="0" style="stop-color:#1A6DFF"/>
	<stop offset="1" style="stop-color:#C822FF"/>
</linearGradient>
<path style="fill:url(#SVGID_3__48196);" d="M43,37c0,0.552-0.449,1-1,1h-6c-0.552,0-1-0.448-1-1v-6c0-0.552,0.448-1,1-1h3v-2h-3  c-1.654,0-3,1.346-3,3v6c0,1.654,1.345,3,3,3h6c1.654,0,3-1.346,3-3v-2h-2V37z"/>
<linearGradient id="SVGID_4__48196" gradientUnits="userSpaceOnUse" x1="40.9997" y1="5" x2="40.9997" y2="59.3605" spreadMethod="reflect">
	<stop offset="0" style="stop-color:#1A6DFF"/>
	<stop offset="1" style="stop-color:#C822FF"/>
</linearGradient>
<polygon style="fill:url(#SVGID_4__48196);" points="39,33.586 37.707,32.293 36.293,33.707 39,36.414 45.707,29.707 44.293,28.293 "/>
</svg>
