<?xml version="1.0" encoding="iso-8859-1"?>
<!-- Generator: Adobe Illustrator 20.1.0, SVG Export Plug-In . SVG Version: 6.00 Build 0)  -->
<svg xmlns="http://www.w3.org/2000/svg" xmlns:xlink="http://www.w3.org/1999/xlink" version="1.1" id="&#1057;&#1083;&#1086;&#1081;_1" x="0px" y="0px" viewBox="0 0 64 64" style="enable-background:new 0 0 64 64;" xml:space="preserve">
<linearGradient id="SVGID_1__44850" gradientUnits="userSpaceOnUse" x1="37.0005" y1="32.6659" x2="37.0005" y2="37.1663" spreadMethod="reflect">
	<stop offset="0" style="stop-color:#6DC7FF"/>
	<stop offset="1" style="stop-color:#E6ABFF"/>
</linearGradient>
<circle style="fill:url(#SVGID_1__44850);" cx="37.001" cy="34.999" r="2"/>
<linearGradient id="SVGID_2__44850" gradientUnits="userSpaceOnUse" x1="26.9998" y1="32.6659" x2="26.9998" y2="37.1663" spreadMethod="reflect">
	<stop offset="0" style="stop-color:#6DC7FF"/>
	<stop offset="1" style="stop-color:#E6ABFF"/>
</linearGradient>
<circle style="fill:url(#SVGID_2__44850);" cx="27" cy="34.999" r="2"/>
<linearGradient id="SVGID_3__44850" gradientUnits="userSpaceOnUse" x1="32" y1="38.3333" x2="32" y2="43.3362" spreadMethod="reflect">
	<stop offset="0" style="stop-color:#6DC7FF"/>
	<stop offset="1" style="stop-color:#E6ABFF"/>
</linearGradient>
<path style="fill:url(#SVGID_3__44850);" d="M35,40c0,1.657-1.343,3-3,3c-1.657,0-3-1.343-3-3v-1h6V40z"/>
<linearGradient id="SVGID_4__44850" gradientUnits="userSpaceOnUse" x1="32" y1="5.2472" x2="32" y2="58.625" spreadMethod="reflect">
	<stop offset="0" style="stop-color:#1A6DFF"/>
	<stop offset="1" style="stop-color:#C822FF"/>
</linearGradient>
<path style="fill:url(#SVGID_4__44850);" d="M55.918,17.445L34.177,6.514c-1.363-0.685-2.99-0.685-4.354,0L8.082,17.445  c-0.655,0.33-1.07,0.991-1.084,1.726c-0.013,0.735,0.38,1.412,1.023,1.765L9,21.472v7.711c-1,0.414-2,1.514-2,2.816v4  c0,1.654,1.346,3,3,3s3-1.346,3-3v-4c0-1.302-1-2.402-2-2.816v-6.614l5,2.743v1.409c0,0.615,0.277,1.185,0.76,1.564  c0.358,0.282,0.24,0.426,1.24,0.425V29.1c-3,0.465-4.001,2.485-4.001,4.899c0,2.613,2.021,4.74,4.579,4.958  c0.149,0.505,0.319,1.001,0.522,1.481C13.95,44.45,11,50.461,11,57.001V58h42v-0.999c0-6.541-2.949-12.551-8.099-16.564  c0.203-0.479,0.372-0.976,0.521-1.48c2.557-0.218,4.579-2.345,4.579-4.958c0-2.415-2.001-4.435-4.001-4.899V29c0,0,0.006,0,0.008,0  c0.443,0,0.875-0.291,1.233-0.572C47.723,28.049,48,27.335,48,26.72v-1.409l7.979-4.376c0.644-0.353,1.036-1.029,1.023-1.765  C56.988,18.436,56.573,17.774,55.918,17.445z M10,30.999c0.552,0,1,0.449,1,1V33H9v-1.001C9,31.448,9.448,30.999,10,30.999z M10,37  c-0.552,0-1-0.449-1-1v-1h2v1C11,36.551,10.552,37,10,37z M44,34.999C44,41.617,38.618,47,32,47s-12-5.384-12-12.001v-2  c1,0,2-0.897,2-2V27.91c6-1.198,13-1.198,20,0v3.089c0,1.103,1,2,2,2V34.999z M29.426,53.629C29.578,53.247,29.943,53,30.355,53H31  h2h0.645c0.412,0,0.777,0.247,0.93,0.63L35.523,56h-7.046L29.426,53.629z M33,51h-2c-0.552,0-1-0.448-1-0.999v-1.16  c0,0.094,1.319,0.16,2,0.16c0.681,0,1-0.065,2-0.16v1.16C34,50.552,33.552,51,33,51z M36,25.158v-3.992c1,0.096,2,0.249,4,0.441  v3.976C38,25.398,37,25.251,36,25.158z M34,25.068c-2-0.046-3-0.045-4,0.001v-3.998c0-0.024,1.328-0.063,1.992-0.063  c0.669,0,1.008,0.039,2.008,0.063V25.068z M28,25.161c-2,0.093-3,0.242-4,0.428v-3.984c1-0.192,2-0.344,4-0.44V25.161z M22,25.895  c-2,0.233-3,0.501-4,0.828v-3.951c1-0.337,2-0.612,4-0.852V25.895z M15.999,33.999c0-1.302,1.001-2.402,2.001-2.816v3.816  c0,0.632,0.056,1.249,0.138,1.859C16.905,36.485,15.999,35.352,15.999,33.999z M20.041,42.242C21.824,45.175,24,47.408,28,48.411  v1.59c0,0.61,0.185,1.176,0.498,1.65c-0.403,0.318-0.73,0.735-0.93,1.237L26.322,56H19v-2h-2v2h-3.976  C13.301,51,15.819,45.66,20.041,42.242z M50.976,56H47v-2h-2v2h-7.322l-1.246-3.113c-0.2-0.502-0.528-0.919-0.93-1.237  C35.815,51.176,36,50.61,36,50.001v-1.59c3-1.003,6.176-3.235,7.959-6.169C48.182,45.66,50.7,51,50.976,56z M48.001,33.999  c0,1.353-0.906,2.486-2.139,2.859C45.944,36.249,46,35.631,46,34.999v-3.816C47,31.598,48.001,32.697,48.001,33.999z M45.998,26.711  C44.668,26.385,43,26.12,42,25.888v-3.965c1,0.241,2.67,0.517,4.001,0.854L45.998,26.711z M48,23.031v-0.254  c0-0.92-0.62-1.719-1.509-1.944c-9.616-2.435-19.366-2.435-28.982,0C16.62,21.058,16,21.857,16,22.777v0.265l-7.019-3.81  L30.722,8.301c0.801-0.402,1.756-0.402,2.557,0l21.739,10.881L48,23.031z"/>
</svg>
