<?xml version="1.0" encoding="iso-8859-1"?>
<!-- Generator: Adobe Illustrator 20.1.0, SVG Export Plug-In . SVG Version: 6.00 Build 0)  -->
<svg xmlns="http://www.w3.org/2000/svg" xmlns:xlink="http://www.w3.org/1999/xlink" version="1.1" id="&#1057;&#1083;&#1086;&#1081;_1" x="0px" y="0px" viewBox="0 0 64 64" style="enable-background:new 0 0 64 64;" xml:space="preserve">
<linearGradient id="SVGID_1__49408" gradientUnits="userSpaceOnUse" x1="32" y1="17.75" x2="32" y2="24.25" spreadMethod="reflect">
	<stop offset="0" style="stop-color:#6DC7FF"/>
	<stop offset="1" style="stop-color:#E6ABFF"/>
</linearGradient>
<circle style="fill:url(#SVGID_1__49408);" cx="32" cy="21" r="3"/>
<linearGradient id="SVGID_2__49408" gradientUnits="userSpaceOnUse" x1="38" y1="39.4167" x2="38" y2="45.6667" spreadMethod="reflect">
	<stop offset="0" style="stop-color:#6DC7FF"/>
	<stop offset="1" style="stop-color:#E6ABFF"/>
</linearGradient>
<circle style="fill:url(#SVGID_2__49408);" cx="38" cy="42.5" r="2.5"/>
<linearGradient id="SVGID_3__49408" gradientUnits="userSpaceOnUse" x1="26" y1="39.4167" x2="26" y2="45.6667" spreadMethod="reflect">
	<stop offset="0" style="stop-color:#6DC7FF"/>
	<stop offset="1" style="stop-color:#E6ABFF"/>
</linearGradient>
<circle style="fill:url(#SVGID_3__49408);" cx="26" cy="42.5" r="2.5"/>
<linearGradient id="SVGID_4__49408" gradientUnits="userSpaceOnUse" x1="32" y1="46.3333" x2="32" y2="51.3507" spreadMethod="reflect">
	<stop offset="0" style="stop-color:#6DC7FF"/>
	<stop offset="1" style="stop-color:#E6ABFF"/>
</linearGradient>
<path style="fill:url(#SVGID_4__49408);" d="M28,47c0,2.209,1.791,4,4,4s4-1.791,4-4H28z"/>
<linearGradient id="SVGID_5__49408" gradientUnits="userSpaceOnUse" x1="32" y1="3.25" x2="32" y2="59.1813" spreadMethod="reflect">
	<stop offset="0" style="stop-color:#1A6DFF"/>
	<stop offset="1" style="stop-color:#C822FF"/>
</linearGradient>
<path style="fill:url(#SVGID_5__49408);" d="M53,41c0-2.215-1.209-4.149-3-5.188v-2.996c1.162-0.414,2-1.514,2-2.816s-0.838-2.402-2-2.816  V26c0-7.213-4.396-13.777-11-16.573V9c0-1.654-1.346-3-3-3h-8c-1.654,0-3,1.346-3,3v0.427C18.396,12.223,14,18.787,14,26v1.184  c-1.162,0.414-2,1.514-2,2.816s0.838,2.402,2,2.816v2.996c-1.791,1.039-3,2.973-3,5.188c0,3.244,2.588,5.888,5.808,5.99  C18.911,53.374,24.921,58,32,58s13.089-4.626,15.192-11.01C50.412,46.888,53,44.244,53,41z M44,18c0-0.552,0.448-1,1-1h0.206  c1.222,1.794,2.076,3.835,2.495,6H45c-0.552,0-1-0.448-1-1V18z M27,9c0-0.552,0.448-1,1-1h8c0.552,0,1,0.448,1,1v1  c0,1.654-1.346,3-3,3h-4c-1.654,0-3-1.346-3-3V9z M25.252,11.49C25.891,13.516,27.765,15,30,15h4c2.235,0,4.109-1.484,4.748-3.51  c1.95,0.91,3.662,2.2,5.07,3.755C42.75,15.704,42,16.765,42,18v4c0,1.654,1.346,3,3,3h2.961C47.982,25.332,48,25.665,48,26v1H16v-1  c0-0.335,0.018-0.668,0.039-1H19c1.654,0,3-1.346,3-3v-4c0-1.235-0.75-2.296-1.818-2.756C21.59,13.69,23.302,12.4,25.252,11.49z   M19,17c0.552,0,1,0.448,1,1v4c0,0.552-0.448,1-1,1h-2.701c0.419-2.165,1.273-4.206,2.495-6H19z M15,29h34c0.552,0,1,0.448,1,1  s-0.448,1-1,1H15c-0.552,0-1-0.448-1-1S14.448,29,15,29z M13,41c0-1.859,1.28-3.411,3-3.858V42c0,1.001,0.104,1.977,0.281,2.927  C14.418,44.587,13,42.96,13,41z M37,55.061V54h-2v1.668c-0.651,0.143-1.319,0.233-2,0.281V53h-2v2.949  c-0.681-0.048-1.349-0.138-2-0.281V54h-2v1.061c-5.254-2.019-9-7.104-9-13.061v-9h28v9C46,47.957,42.254,53.042,37,55.061z   M47.719,44.927C47.896,43.977,48,43.001,48,42v-4.858c1.72,0.447,3,1.999,3,3.858C51,42.96,49.582,44.587,47.719,44.927z"/>
<linearGradient id="SVGID_6__49408" gradientUnits="userSpaceOnUse" x1="32" y1="3.25" x2="32" y2="59.1813" spreadMethod="reflect">
	<stop offset="0" style="stop-color:#1A6DFF"/>
	<stop offset="1" style="stop-color:#C822FF"/>
</linearGradient>
<path style="fill:url(#SVGID_6__49408);" d="M32,25c2.206,0,4-1.794,4-4s-1.794-4-4-4s-4,1.794-4,4S29.794,25,32,25z M32,19  c1.103,0,2,0.897,2,2s-0.897,2-2,2s-2-0.897-2-2S30.897,19,32,19z"/>
<linearGradient id="SVGID_7__49408" gradientUnits="userSpaceOnUse" x1="38" y1="3.25" x2="38" y2="59.1813" spreadMethod="reflect">
	<stop offset="0" style="stop-color:#1A6DFF"/>
	<stop offset="1" style="stop-color:#C822FF"/>
</linearGradient>
<rect x="35" y="35" style="fill:url(#SVGID_7__49408);" width="6" height="2"/>
<linearGradient id="SVGID_8__49408" gradientUnits="userSpaceOnUse" x1="26" y1="3.25" x2="26" y2="59.1813" spreadMethod="reflect">
	<stop offset="0" style="stop-color:#1A6DFF"/>
	<stop offset="1" style="stop-color:#C822FF"/>
</linearGradient>
<rect x="23" y="35" style="fill:url(#SVGID_8__49408);" width="6" height="2"/>
</svg>
